<svg width="24" height="24" viewBox="0 0 24 24" fill="none" xmlns="http://www.w3.org/2000/svg">
<path d="M12.207 2.62354C12.6523 2.6582 13.0656 2.79629 13.4463 3.0376C13.8269 3.2789 14.1273 3.59407 14.3486 3.98193C14.5827 4.39229 14.7001 4.83763 14.7002 5.31787V6.00049H19.2002C20.7465 6.00059 22 7.25396 22 8.80029V18.1997C22 19.746 20.7465 21.0004 19.2002 21.0005H4.7998C3.25349 21.0004 2 19.746 2 18.1997V8.80029C2 7.55494 2.81328 6.49998 3.9375 6.13623L10.8486 2.87646C11.283 2.67158 11.736 2.58691 12.207 2.62354ZM4.7998 7.3999C4.41329 7.39995 4.08289 7.53674 3.80957 7.81006C3.53637 8.08338 3.40039 8.41381 3.40039 8.80029V18.1997C3.40039 18.5862 3.53635 18.9167 3.80957 19.1899C4.08289 19.4633 4.41329 19.6001 4.7998 19.6001H19.2002C19.5867 19.6001 19.9171 19.4633 20.1904 19.1899C20.4636 18.9166 20.5996 18.5862 20.5996 18.1997V16.1997H18C17.2546 16.1997 16.618 15.9366 16.0908 15.4097C15.5636 14.8825 15.2998 14.2451 15.2998 13.4995C15.2999 12.7541 15.5637 12.1174 16.0908 11.5903C16.618 11.0633 17.2546 10.8003 18 10.8003H20.5996V8.80029C20.5996 8.4138 20.4636 8.08338 20.1904 7.81006C19.9171 7.53674 19.5867 7.39995 19.2002 7.3999H4.7998ZM11.1572 11.1567L9.8877 12.4253H11.5V13.5747H9.5752V14.9253H11.5V16.0747H9.5752V17.5005H8.4248V16.0747H6.5V14.9253H8.4248V13.5747H6.5V12.4253H8.1123L6.84375 11.1567L7.65723 10.3433L9 11.687L10.3438 10.3433L11.1572 11.1567ZM18 12.1997C17.641 12.1997 17.3339 12.3267 17.0801 12.5806C16.8265 12.8343 16.7003 13.1408 16.7002 13.4995C16.7002 13.8584 16.8263 14.1656 17.0801 14.4194C17.3339 14.6733 17.641 14.8003 18 14.8003H20.5996V12.1997H18ZM12.6963 4.22021C12.2937 3.96504 11.8764 3.93966 11.4453 4.14307L7.50879 6.00049H13.3008V5.31787C13.3007 4.84136 13.0988 4.47538 12.6963 4.22021Z" fill="#1E2533"/>
</svg>
