<svg width="24" height="24" viewBox="0 0 24 24" fill="none" xmlns="http://www.w3.org/2000/svg">
<path d="M15.1367 2.31348C15.1817 2.32244 15.2252 2.33597 15.2676 2.35352C15.31 2.3711 15.3505 2.39244 15.3887 2.41797C15.4269 2.4435 15.4626 2.47238 15.4951 2.50488C15.5276 2.53735 15.5565 2.57315 15.582 2.61133C15.6075 2.64947 15.6289 2.69005 15.6465 2.73242C15.664 2.77477 15.6776 2.81833 15.6865 2.86328C15.6955 2.90836 15.7002 2.95404 15.7002 3V4H18.2002C19.7465 4 20.9998 5.2536 21 6.7998V18.2002C20.9999 19.7465 19.7465 21 18.2002 21H5.7998C4.25362 20.9998 3.0001 19.7464 3 18.2002V6.7998C3.00021 5.25373 4.25369 4.0002 5.7998 4H8.2998V3C8.2998 2.95404 8.30451 2.90836 8.31348 2.86328C8.32243 2.81831 8.33597 2.77479 8.35352 2.73242C8.37109 2.68999 8.39246 2.64952 8.41797 2.61133C8.4435 2.57311 8.47238 2.53738 8.50488 2.50488C8.53736 2.47241 8.57314 2.44348 8.61133 2.41797C8.64947 2.39251 8.69006 2.37106 8.73242 2.35352C8.77478 2.33599 8.81832 2.32242 8.86328 2.31348C8.90835 2.30451 8.95404 2.2998 9 2.2998C9.0459 2.29982 9.0917 2.30452 9.13672 2.31348C9.18167 2.32244 9.22522 2.33597 9.26758 2.35352C9.31004 2.3711 9.35046 2.39244 9.38867 2.41797C9.42689 2.4435 9.46262 2.47238 9.49512 2.50488C9.52757 2.53735 9.55652 2.57315 9.58203 2.61133C9.60749 2.64947 9.62893 2.69005 9.64648 2.73242C9.66401 2.77477 9.67757 2.81833 9.68652 2.86328C9.69549 2.90836 9.7002 2.95404 9.7002 3V4H14.2998V3C14.2998 2.95404 14.3045 2.90836 14.3135 2.86328C14.3224 2.81831 14.336 2.77479 14.3535 2.73242C14.3711 2.68999 14.3925 2.64952 14.418 2.61133C14.4435 2.57311 14.4724 2.53738 14.5049 2.50488C14.5374 2.47241 14.5731 2.44348 14.6113 2.41797C14.6495 2.39251 14.6901 2.37106 14.7324 2.35352C14.7748 2.33599 14.8183 2.32242 14.8633 2.31348C14.9084 2.30451 14.954 2.2998 15 2.2998C15.0459 2.29982 15.0917 2.30452 15.1367 2.31348ZM5.7998 5.40039C5.02692 5.40059 4.4006 6.0269 4.40039 6.7998V18.2002C4.40049 18.9732 5.02685 19.6004 5.7998 19.6006H18.2002C18.9733 19.6006 19.6005 18.9733 19.6006 18.2002V6.7998C19.6004 6.02678 18.9732 5.40039 18.2002 5.40039H15.7002V6C15.7002 6.04595 15.6955 6.09164 15.6865 6.13672C15.6776 6.18167 15.664 6.22522 15.6465 6.26758C15.6289 6.30995 15.6075 6.35052 15.582 6.38867C15.5565 6.42685 15.5276 6.46264 15.4951 6.49512C15.4626 6.52762 15.4269 6.5565 15.3887 6.58203C15.3505 6.60756 15.31 6.6289 15.2676 6.64648C15.2252 6.66402 15.1817 6.67756 15.1367 6.68652C15.0917 6.69548 15.0459 6.70018 15 6.7002C14.954 6.7002 14.9084 6.69549 14.8633 6.68652C14.8183 6.67758 14.7748 6.664 14.7324 6.64648C14.6901 6.62893 14.6495 6.60748 14.6113 6.58203C14.5732 6.55652 14.5374 6.52758 14.5049 6.49512C14.4724 6.46262 14.4435 6.42689 14.418 6.38867C14.3925 6.35047 14.3711 6.31001 14.3535 6.26758C14.336 6.22521 14.3224 6.18169 14.3135 6.13672C14.3045 6.09164 14.2998 6.04595 14.2998 6V5.40039H9.7002V6C9.70019 6.04595 9.69549 6.09164 9.68652 6.13672C9.67757 6.18167 9.66401 6.22522 9.64648 6.26758C9.62893 6.30995 9.6075 6.35052 9.58203 6.38867C9.55652 6.42685 9.52758 6.46264 9.49512 6.49512C9.46262 6.52762 9.42689 6.5565 9.38867 6.58203C9.35046 6.60756 9.31003 6.6289 9.26758 6.64648C9.22523 6.66402 9.18167 6.67756 9.13672 6.68652C9.0917 6.69548 9.0459 6.70018 9 6.7002C8.95405 6.7002 8.90835 6.69549 8.86328 6.68652C8.81832 6.67758 8.77478 6.664 8.73242 6.64648C8.69006 6.62893 8.64946 6.60748 8.61133 6.58203C8.57315 6.55652 8.53736 6.52758 8.50488 6.49512C8.47238 6.46262 8.4435 6.42689 8.41797 6.38867C8.39245 6.35047 8.3711 6.31001 8.35352 6.26758C8.33597 6.22521 8.32244 6.18169 8.31348 6.13672C8.30451 6.09164 8.29981 6.04595 8.2998 6V5.40039H5.7998ZM15.1367 14.3135C15.1817 14.3224 15.2252 14.336 15.2676 14.3535C15.31 14.3711 15.3505 14.3924 15.3887 14.418C15.4269 14.4435 15.4626 14.4724 15.4951 14.5049C15.5276 14.5374 15.5565 14.5732 15.582 14.6113C15.6075 14.6495 15.6289 14.6901 15.6465 14.7324C15.664 14.7748 15.6776 14.8183 15.6865 14.8633C15.6955 14.9084 15.7002 14.954 15.7002 15C15.7002 15.046 15.6955 15.0916 15.6865 15.1367C15.6776 15.1817 15.664 15.2252 15.6465 15.2676C15.6289 15.31 15.6075 15.3505 15.582 15.3887C15.5565 15.4269 15.5276 15.4626 15.4951 15.4951C15.4626 15.5276 15.4269 15.5565 15.3887 15.582C15.3505 15.6076 15.31 15.6289 15.2676 15.6465C15.2252 15.664 15.1817 15.6776 15.1367 15.6865C15.0917 15.6955 15.0459 15.7002 15 15.7002H9C8.95405 15.7002 8.90835 15.6955 8.86328 15.6865C8.81832 15.6776 8.77478 15.664 8.73242 15.6465C8.69006 15.6289 8.64946 15.6075 8.61133 15.582C8.57315 15.5565 8.53736 15.5276 8.50488 15.4951C8.47238 15.4626 8.4435 15.4269 8.41797 15.3887C8.39245 15.3505 8.3711 15.31 8.35352 15.2676C8.33597 15.2252 8.32244 15.1817 8.31348 15.1367C8.30451 15.0916 8.29981 15.046 8.2998 15C8.2998 14.954 8.30451 14.9084 8.31348 14.8633C8.32243 14.8183 8.33597 14.7748 8.35352 14.7324C8.37109 14.69 8.39246 14.6495 8.41797 14.6113C8.4435 14.5731 8.47238 14.5374 8.50488 14.5049C8.53736 14.4724 8.57314 14.4435 8.61133 14.418C8.64947 14.3925 8.69006 14.3711 8.73242 14.3535C8.77478 14.336 8.81832 14.3224 8.86328 14.3135C8.90835 14.3045 8.95404 14.2998 9 14.2998H15C15.0459 14.2998 15.0917 14.3045 15.1367 14.3135ZM15.1367 10.3135C15.1817 10.3224 15.2252 10.336 15.2676 10.3535C15.31 10.3711 15.3505 10.3924 15.3887 10.418C15.4269 10.4435 15.4626 10.4724 15.4951 10.5049C15.5276 10.5374 15.5565 10.5732 15.582 10.6113C15.6075 10.6495 15.6289 10.6901 15.6465 10.7324C15.664 10.7748 15.6776 10.8183 15.6865 10.8633C15.6955 10.9084 15.7002 10.954 15.7002 11C15.7002 11.046 15.6955 11.0916 15.6865 11.1367C15.6776 11.1817 15.664 11.2252 15.6465 11.2676C15.6289 11.31 15.6075 11.3505 15.582 11.3887C15.5565 11.4269 15.5276 11.4626 15.4951 11.4951C15.4626 11.5276 15.4269 11.5565 15.3887 11.582C15.3505 11.6076 15.31 11.6289 15.2676 11.6465C15.2252 11.664 15.1817 11.6776 15.1367 11.6865C15.0917 11.6955 15.0459 11.7002 15 11.7002H9C8.95405 11.7002 8.90835 11.6955 8.86328 11.6865C8.81832 11.6776 8.77478 11.664 8.73242 11.6465C8.69006 11.6289 8.64946 11.6075 8.61133 11.582C8.57315 11.5565 8.53736 11.5276 8.50488 11.4951C8.47238 11.4626 8.4435 11.4269 8.41797 11.3887C8.39245 11.3505 8.3711 11.31 8.35352 11.2676C8.33597 11.2252 8.32244 11.1817 8.31348 11.1367C8.30451 11.0916 8.29981 11.046 8.2998 11C8.2998 10.954 8.30451 10.9084 8.31348 10.8633C8.32243 10.8183 8.33597 10.7748 8.35352 10.7324C8.37109 10.69 8.39246 10.6495 8.41797 10.6113C8.4435 10.5731 8.47238 10.5374 8.50488 10.5049C8.53736 10.4724 8.57314 10.4435 8.61133 10.418C8.64947 10.3925 8.69006 10.3711 8.73242 10.3535C8.77478 10.336 8.81832 10.3224 8.86328 10.3135C8.90835 10.3045 8.95404 10.2998 9 10.2998H15C15.0459 10.2998 15.0917 10.3045 15.1367 10.3135Z" fill="#1E2533"/>
</svg>
