<svg width="24" height="24" viewBox="0 0 24 24" fill="none" xmlns="http://www.w3.org/2000/svg">
<path d="M8.17578 19.0186C9.07972 19.0186 9.8125 19.7513 9.8125 20.6553C9.81243 21.5592 9.07968 22.292 8.17578 22.292C7.27189 22.292 6.53913 21.5592 6.53906 20.6553C6.53906 19.7513 7.27185 19.0186 8.17578 19.0186ZM16.7266 19.0186C17.6305 19.0186 18.3633 19.7513 18.3633 20.6553C18.3632 21.5592 17.6305 22.292 16.7266 22.292C15.8227 22.292 15.0899 21.5592 15.0898 20.6553C15.0898 19.7513 15.8226 19.0186 16.7266 19.0186ZM1.6377 3.31348L3.41211 3.66895C4.23376 3.83341 4.68604 4.33223 4.76953 5.16602L4.80664 5.53711H19.0938C19.9381 5.53711 20.6301 5.86148 21.1699 6.51074C21.7096 7.15998 21.9022 7.89945 21.748 8.72949L20.4922 15.4932C20.3733 16.1325 20.0635 16.6603 19.5635 17.0762C19.0633 17.492 18.4874 17.7002 17.8369 17.7002H7.05957C6.36611 17.7001 5.76224 17.4673 5.24805 17.002C4.7338 16.5366 4.44206 15.9586 4.37305 15.2686L3.37695 5.30566C3.36223 5.15846 3.28178 5.07003 3.13672 5.04102L1.3623 4.68652C1.32306 4.67865 1.2844 4.66776 1.24707 4.65332C1.20975 4.63888 1.17396 4.62116 1.13965 4.60059C1.10522 4.57991 1.07238 4.55555 1.04199 4.5293C1.01174 4.50313 0.983366 4.47429 0.958008 4.44336C0.932708 4.41244 0.910303 4.37949 0.890625 4.34473C0.870854 4.30979 0.854334 4.27315 0.84082 4.23535C0.827338 4.1976 0.817394 4.15864 0.810547 4.11914C0.803727 4.07969 0.799805 4.04004 0.799805 4C0.799805 3.95404 0.80451 3.90836 0.813477 3.86328C0.822435 3.81831 0.835974 3.77479 0.853516 3.73242C0.871093 3.68999 0.892456 3.64952 0.917969 3.61133C0.943505 3.57311 0.972383 3.53738 1.00488 3.50488C1.03736 3.47242 1.07315 3.44348 1.11133 3.41797C1.14931 3.39262 1.18927 3.37102 1.23145 3.35352C1.27391 3.33593 1.3182 3.32244 1.36328 3.31348C1.40835 3.30451 1.45405 3.2998 1.5 3.2998C1.54614 3.29982 1.59245 3.30443 1.6377 3.31348ZM5.7666 15.1289C5.79983 15.4612 5.9399 15.7398 6.1875 15.9639C6.43505 16.1879 6.72572 16.2998 7.05957 16.2998H17.8369C18.5574 16.2998 18.9836 15.9456 19.1152 15.2373L19.4092 13.6523C18.0826 14.3485 16.2807 14.7002 14 14.7002C13.954 14.7002 13.9084 14.6955 13.8633 14.6865C13.8182 14.6776 13.7739 14.6641 13.7314 14.6465C13.6893 14.629 13.6493 14.6074 13.6113 14.582C13.5731 14.5565 13.5374 14.5276 13.5049 14.4951C13.4724 14.4626 13.4435 14.4269 13.418 14.3887C13.3925 14.3505 13.3711 14.31 13.3535 14.2676C13.336 14.2252 13.3224 14.1817 13.3135 14.1367C13.3045 14.0916 13.2998 14.046 13.2998 14C13.2998 13.954 13.3045 13.9084 13.3135 13.8633C13.3224 13.8183 13.336 13.7748 13.3535 13.7324C13.3711 13.69 13.3925 13.6495 13.418 13.6113C13.4435 13.5731 13.4724 13.5374 13.5049 13.5049C13.5374 13.4724 13.5732 13.4435 13.6113 13.418C13.6493 13.3926 13.6893 13.371 13.7314 13.3535C13.7739 13.3359 13.8182 13.3224 13.8633 13.3135C13.9083 13.3045 13.954 13.2998 14 13.2998C16.8012 13.2998 18.7255 12.7581 19.7725 11.6748C19.7739 11.6733 19.7759 11.6714 19.7773 11.6699L20.3721 8.47461C20.4463 8.07489 20.3537 7.71791 20.0938 7.40527C19.8339 7.09273 19.5003 6.93652 19.0938 6.93652H4.94727L5.7666 15.1289Z" fill="#1E2533"/>
</svg>
