<svg width="24" height="24" viewBox="0 0 24 24" fill="none" xmlns="http://www.w3.org/2000/svg">
<path d="M12 2.2998C14.4024 2.29985 16.4527 3.1499 18.1514 4.84863C19.8266 6.52386 20.6741 8.54089 20.6973 10.9004C21.3089 11.3954 21.7002 12.1519 21.7002 13V15C21.7002 16.4912 20.4912 17.7002 19 17.7002C18.8634 17.7002 18.7298 17.6866 18.5986 17.667C18.2385 18.1826 17.7738 18.6147 17.2012 18.96C16.7646 19.2231 16.1085 19.5098 15.2324 19.8193C14.5134 20.0734 13.4358 20.2002 12 20.2002C11.9541 20.2002 11.9083 20.1955 11.8633 20.1865C11.8182 20.1776 11.7739 20.1641 11.7314 20.1465C11.6893 20.129 11.6493 20.1074 11.6113 20.082C11.5732 20.0565 11.5374 20.0276 11.5049 19.9951C11.4724 19.9626 11.4435 19.9269 11.418 19.8887C11.3924 19.8505 11.3711 19.81 11.3535 19.7676C11.336 19.7252 11.3224 19.6817 11.3135 19.6367C11.3045 19.5917 11.2998 19.546 11.2998 19.5C11.2998 19.454 11.3045 19.4084 11.3135 19.3633C11.3224 19.3183 11.336 19.2748 11.3535 19.2324C11.3711 19.19 11.3925 19.1495 11.418 19.1113C11.4435 19.0731 11.4724 19.0374 11.5049 19.0049C11.5374 18.9724 11.5732 18.9435 11.6113 18.918C11.6493 18.8926 11.6893 18.871 11.7314 18.8535C11.7739 18.8359 11.8182 18.8224 11.8633 18.8135C11.9083 18.8045 11.9541 18.7998 12 18.7998C13.2755 18.7998 14.1975 18.6997 14.7656 18.499C15.5523 18.2211 16.1234 17.9749 16.4785 17.7607C16.7944 17.5703 17.0613 17.3439 17.2822 17.084C16.6821 16.5887 16.2998 15.8388 16.2998 15V13C16.2998 11.5088 17.5088 10.2998 19 10.2998C19.0909 10.2998 19.1809 10.3037 19.2695 10.3125C19.1237 8.59025 18.4226 7.09842 17.1621 5.83789C15.7368 4.41252 14.0158 3.70024 12 3.7002C9.9842 3.7002 8.26329 4.41254 6.83789 5.83789C5.57733 7.09845 4.87528 8.59019 4.72949 10.3125C4.81844 10.3037 4.90873 10.2998 5 10.2998C6.49117 10.2998 7.7002 11.5088 7.7002 13V15C7.7002 16.4912 6.49117 17.7002 5 17.7002C3.50883 17.7002 2.2998 16.4912 2.2998 15V13C2.2998 12.1522 2.69048 11.3954 3.30176 10.9004C3.32496 8.54102 4.17266 6.52381 5.84766 4.84863C7.54644 3.14985 9.59756 2.29981 12 2.2998ZM5 11.7002C4.28203 11.7002 3.7002 12.282 3.7002 13V15C3.7002 15.718 4.28203 16.2998 5 16.2998C5.71797 16.2998 6.2998 15.718 6.2998 15V13C6.2998 12.282 5.71797 11.7002 5 11.7002ZM19 11.7002C18.282 11.7002 17.7002 12.282 17.7002 13V15C17.7002 15.718 18.282 16.2998 19 16.2998C19.718 16.2998 20.2998 15.718 20.2998 15V13C20.2998 12.282 19.718 11.7002 19 11.7002ZM14.6367 12.3135C14.6817 12.3224 14.7252 12.336 14.7676 12.3535C14.81 12.3711 14.8505 12.3924 14.8887 12.418C14.9269 12.4435 14.9626 12.4724 14.9951 12.5049C15.0276 12.5374 15.0565 12.5732 15.082 12.6113C15.1075 12.6495 15.1289 12.6901 15.1465 12.7324C15.164 12.7748 15.1776 12.8183 15.1865 12.8633C15.1955 12.9084 15.2002 12.954 15.2002 13C15.2002 13.1413 15.1604 13.2711 15.082 13.3887C14.2769 14.5962 13.2495 15.2001 12 15.2002C10.7504 15.2002 9.72215 14.5962 8.91699 13.3887C8.83861 13.2711 8.79981 13.1413 8.7998 13C8.7998 12.954 8.80451 12.9084 8.81348 12.8633C8.82243 12.8183 8.83598 12.7748 8.85352 12.7324C8.87109 12.69 8.89246 12.6495 8.91797 12.6113C8.9435 12.5731 8.97238 12.5374 9.00488 12.5049C9.03736 12.4724 9.07315 12.4435 9.11133 12.418C9.14931 12.3926 9.18927 12.371 9.23145 12.3535C9.27391 12.3359 9.3182 12.3224 9.36328 12.3135C9.40835 12.3045 9.45405 12.2998 9.5 12.2998C9.55753 12.2998 9.61412 12.3073 9.66992 12.3213C9.7258 12.3353 9.77928 12.3556 9.83008 12.3828C9.88088 12.41 9.92804 12.4427 9.9707 12.4814C10.0132 12.5201 10.0501 12.5636 10.082 12.6113C10.6102 13.4035 11.2498 13.7998 12 13.7998C12.7502 13.7997 13.3889 13.4035 13.917 12.6113C13.9489 12.5634 13.9867 12.5202 14.0293 12.4814C14.0719 12.4428 14.1192 12.41 14.1699 12.3828C14.2205 12.3558 14.2735 12.3353 14.3291 12.3213C14.385 12.3073 14.4424 12.2998 14.5 12.2998C14.5459 12.2998 14.5917 12.3045 14.6367 12.3135Z" fill="#1E2533"/>
</svg>
