<svg width="24" height="24" viewBox="0 0 24 24" fill="none" xmlns="http://www.w3.org/2000/svg">
<path fill-rule="evenodd" clip-rule="evenodd" d="M6.37942 6.2222C9.56577 3.03585 14.679 2.92509 17.7993 6.04544C20.8344 9.08124 20.81 14.0012 17.8726 17.1997L19.7105 19.0376C19.9835 19.3109 19.9836 19.7536 19.7105 20.0269C19.4372 20.3002 18.9936 20.301 18.7202 20.0279L16.8423 18.1499C13.6496 20.6457 9.08017 20.5189 6.20267 17.6421C3.08232 14.5218 3.19308 9.40854 6.37942 6.2222ZM16.8091 7.0347C14.2669 4.49254 10.0402 4.53997 7.36868 7.21145C4.69719 9.88294 4.64976 14.1096 7.19192 16.6519C9.7342 19.1939 13.9609 19.1465 16.6324 16.4751C19.3038 13.8037 19.3511 9.57697 16.8091 7.0347Z" fill="#1E2533"/>
</svg>
